<?xml version="1.0" encoding="utf-8" standalone="no"?>
<!DOCTYPE svg PUBLIC "-//W3C//DTD SVG 1.1//EN"
  "http://www.w3.org/Graphics/SVG/1.1/DTD/svg11.dtd">
<svg xmlns:xlink="http://www.w3.org/1999/xlink" width="666.576pt" height="281.855625pt" viewBox="0 0 666.576 281.855625" xmlns="http://www.w3.org/2000/svg" version="1.1">
 <metadata>
  <rdf:RDF xmlns:dc="http://purl.org/dc/elements/1.1/" xmlns:cc="http://creativecommons.org/ns#" xmlns:rdf="http://www.w3.org/1999/02/22-rdf-syntax-ns#">
   <cc:Work>
    <dc:type rdf:resource="http://purl.org/dc/dcmitype/StillImage"/>
    <dc:format>image/svg+xml</dc:format>
   </cc:Work>
  </rdf:RDF>
 </metadata>
 <defs>
  <style type="text/css">*{stroke-linejoin: round; stroke-linecap: butt}</style>
 </defs>
 <g id="figure_1">
  <g id="patch_1">
   <path d="M 0 281.855625 
L 666.576 281.855625 
L 666.576 0 
L 0 0 
z
" style="fill: #fcfcfb"/>
  </g>
  <g id="axes_1">
   <g id="patch_2">
    <path d="M 43.656 220.600781 
L 330.206391 220.600781 
L 330.206391 50.19 
L 43.656 50.19 
z
" style="fill: #fcfcfb"/>
   </g>
   <g id="matplotlib.axis_1">
    <g id="xtick_1">
     <g id="line2d_1">
      <path d="M 61.251199 220.600781 
L 61.251199 50.19 
" clip-path="url(#p18c724c0b0)" style="fill: none; stroke: #e1e0d9; stroke-linecap: round"/>
     </g>
     <g id="line2d_2"/>
     <g id="text_1">
      <text style="font-size: 10px; font-family: 'Helvetica', 'Arial', 'DejaVu Sans'; text-anchor: middle; fill: #52514e" x="61.251199" y="231.600781" transform="rotate(-0 61.251199 231.600781)">10s</text>
     </g>
    </g>
    <g id="xtick_2">
     <g id="line2d_3">
      <path d="M 186.931195 220.600781 
L 186.931195 50.19 
" clip-path="url(#p18c724c0b0)" style="fill: none; stroke: #e1e0d9; stroke-linecap: round"/>
     </g>
     <g id="line2d_4"/>
     <g id="text_2">
      <text style="font-size: 10px; font-family: 'Helvetica', 'Arial', 'DejaVu Sans'; text-anchor: middle; fill: #52514e" x="186.931195" y="231.600781" transform="rotate(-0 186.931195 231.600781)">20s</text>
     </g>
    </g>
    <g id="xtick_3">
     <g id="line2d_5">
      <path d="M 312.611191 220.600781 
L 312.611191 50.19 
" clip-path="url(#p18c724c0b0)" style="fill: none; stroke: #e1e0d9; stroke-linecap: round"/>
     </g>
     <g id="line2d_6"/>
     <g id="text_3">
      <text style="font-size: 10px; font-family: 'Helvetica', 'Arial', 'DejaVu Sans'; text-anchor: middle; fill: #52514e" x="312.611191" y="231.600781" transform="rotate(-0 312.611191 231.600781)">30s</text>
     </g>
    </g>
    <g id="text_4">
     <text style="font-size: 10px; font-family: 'Helvetica', 'Arial', 'DejaVu Sans'; text-anchor: middle; fill: #52514e" x="186.931195" y="244.8" transform="rotate(-0 186.931195 244.8)">window length</text>
    </g>
   </g>
   <g id="matplotlib.axis_2">
    <g id="ytick_1">
     <g id="line2d_7">
      <path d="M 43.656 211.376169 
L 330.206391 211.376169 
" clip-path="url(#p18c724c0b0)" style="fill: none; stroke: #e1e0d9; stroke-linecap: round"/>
     </g>
     <g id="line2d_8"/>
     <g id="text_5">
      <text style="font-size: 10px; font-family: 'Helvetica', 'Arial', 'DejaVu Sans'; text-anchor: end; fill: #52514e" x="40.156" y="215.126169" transform="rotate(-0 40.156 215.126169)">25</text>
     </g>
    </g>
    <g id="ytick_2">
     <g id="line2d_9">
      <path d="M 43.656 182.940249 
L 330.206391 182.940249 
" clip-path="url(#p18c724c0b0)" style="fill: none; stroke: #e1e0d9; stroke-linecap: round"/>
     </g>
     <g id="line2d_10"/>
     <g id="text_6">
      <text style="font-size: 10px; font-family: 'Helvetica', 'Arial', 'DejaVu Sans'; text-anchor: end; fill: #52514e" x="40.156" y="186.690249" transform="rotate(-0 40.156 186.690249)">30</text>
     </g>
    </g>
    <g id="ytick_3">
     <g id="line2d_11">
      <path d="M 43.656 154.504329 
L 330.206391 154.504329 
" clip-path="url(#p18c724c0b0)" style="fill: none; stroke: #e1e0d9; stroke-linecap: round"/>
     </g>
     <g id="line2d_12"/>
     <g id="text_7">
      <text style="font-size: 10px; font-family: 'Helvetica', 'Arial', 'DejaVu Sans'; text-anchor: end; fill: #52514e" x="40.156" y="158.254329" transform="rotate(-0 40.156 158.254329)">35</text>
     </g>
    </g>
    <g id="ytick_4">
     <g id="line2d_13">
      <path d="M 43.656 126.068409 
L 330.206391 126.068409 
" clip-path="url(#p18c724c0b0)" style="fill: none; stroke: #e1e0d9; stroke-linecap: round"/>
     </g>
     <g id="line2d_14"/>
     <g id="text_8">
      <text style="font-size: 10px; font-family: 'Helvetica', 'Arial', 'DejaVu Sans'; text-anchor: end; fill: #52514e" x="40.156" y="129.818409" transform="rotate(-0 40.156 129.818409)">40</text>
     </g>
    </g>
    <g id="ytick_5">
     <g id="line2d_15">
      <path d="M 43.656 97.632489 
L 330.206391 97.632489 
" clip-path="url(#p18c724c0b0)" style="fill: none; stroke: #e1e0d9; stroke-linecap: round"/>
     </g>
     <g id="line2d_16"/>
     <g id="text_9">
      <text style="font-size: 10px; font-family: 'Helvetica', 'Arial', 'DejaVu Sans'; text-anchor: end; fill: #52514e" x="40.156" y="101.382489" transform="rotate(-0 40.156 101.382489)">45</text>
     </g>
    </g>
    <g id="ytick_6">
     <g id="line2d_17">
      <path d="M 43.656 69.196569 
L 330.206391 69.196569 
" clip-path="url(#p18c724c0b0)" style="fill: none; stroke: #e1e0d9; stroke-linecap: round"/>
     </g>
     <g id="line2d_18"/>
     <g id="text_10">
      <text style="font-size: 10px; font-family: 'Helvetica', 'Arial', 'DejaVu Sans'; text-anchor: end; fill: #52514e" x="40.156" y="72.946569" transform="rotate(-0 40.156 72.946569)">50</text>
     </g>
    </g>
    <g id="text_11">
     <text style="font-size: 10px; font-family: 'Helvetica', 'Arial', 'DejaVu Sans'; text-anchor: middle; fill: #52514e" x="22.821625" y="135.395391" transform="rotate(-90 22.821625 135.395391)">JP coverage CER %</text>
    </g>
   </g>
   <g id="patch_3">
    <path d="M 43.656 220.600781 
L 43.656 50.19 
" style="fill: none; stroke: #c3c2b7; stroke-width: 0.8; stroke-linejoin: miter; stroke-linecap: square"/>
   </g>
   <g id="patch_4">
    <path d="M 43.656 220.600781 
L 330.206391 220.600781 
" style="fill: none; stroke: #c3c2b7; stroke-width: 0.8; stroke-linejoin: miter; stroke-linecap: square"/>
   </g>
   <g id="line2d_19">
    <path d="M 61.251199 199.944929 
L 186.931195 175.376294 
L 312.611191 70.845852 
" clip-path="url(#p18c724c0b0)" style="fill: none; stroke: #2a78d6; stroke-width: 2; stroke-linecap: round"/>
    <defs>
     <path id="m18ba76b1aa" d="M 0 3 
C 0.795609 3 1.55874 2.683901 2.12132 2.12132 
C 2.683901 1.55874 3 0.795609 3 0 
C 3 -0.795609 2.683901 -1.55874 2.12132 -2.12132 
C 1.55874 -2.683901 0.795609 -3 0 -3 
C -0.795609 -3 -1.55874 -2.683901 -2.12132 -2.12132 
C -2.683901 -1.55874 -3 -0.795609 -3 0 
C -3 0.795609 -2.683901 1.55874 -2.12132 2.12132 
C -1.55874 2.683901 -0.795609 3 0 3 
z
" style="stroke: #fcfcfb; stroke-width: 2"/>
    </defs>
    <g clip-path="url(#p18c724c0b0)">
     <use xlink:href="#m18ba76b1aa" x="61.251199" y="199.944929" style="fill: #2a78d6; stroke: #fcfcfb; stroke-width: 2"/>
     <use xlink:href="#m18ba76b1aa" x="186.931195" y="175.376294" style="fill: #2a78d6; stroke: #fcfcfb; stroke-width: 2"/>
     <use xlink:href="#m18ba76b1aa" x="312.611191" y="70.845852" style="fill: #2a78d6; stroke: #fcfcfb; stroke-width: 2"/>
    </g>
   </g>
   <g id="text_12">
    <text style="font-weight: 700; font-size: 9px; font-family: 'Helvetica', 'Arial', 'DejaVu Sans'; text-anchor: middle; fill: #0b0b0b" x="61.251199" y="186.415632" transform="rotate(-0 61.251199 186.415632)">default</text>
   </g>
   <g id="text_13">
    <text style="font-weight: 700; font-size: 9.5px; font-family: 'Helvetica', 'Arial', 'DejaVu Sans'; text-anchor: start; fill: #0b0b0b" x="43.656" y="44.19" transform="rotate(-0 43.656 44.19)">accuracy</text>
   </g>
   <g id="PathCollection_1">
    <path d="M 61.251199 206.068653 
C 62.87523 206.068653 64.432963 205.423419 65.581326 204.275056 
C 66.72969 203.126693 67.374924 201.56896 67.374924 199.944929 
C 67.374924 198.320898 66.72969 196.763165 65.581326 195.614802 
C 64.432963 194.466439 62.87523 193.821205 61.251199 193.821205 
C 59.627169 193.821205 58.069436 194.466439 56.921072 195.614802 
C 55.772709 196.763165 55.127475 198.320898 55.127475 199.944929 
C 55.127475 201.56896 55.772709 203.126693 56.921072 204.275056 
C 58.069436 205.423419 59.627169 206.068653 61.251199 206.068653 
L 61.251199 206.068653 
z
" clip-path="url(#p18c724c0b0)" style="fill: none; stroke: #0b0b0b; stroke-width: 1.5"/>
   </g>
  </g>
  <g id="axes_2">
   <g id="patch_5">
    <path d="M 369.225609 220.600781 
L 655.776 220.600781 
L 655.776 50.19 
L 369.225609 50.19 
z
" style="fill: #fcfcfb"/>
   </g>
   <g id="matplotlib.axis_3">
    <g id="xtick_4">
     <g id="line2d_20">
      <path d="M 386.820809 220.600781 
L 386.820809 50.19 
" clip-path="url(#p8d95a7ce49)" style="fill: none; stroke: #e1e0d9; stroke-linecap: round"/>
     </g>
     <g id="line2d_21"/>
     <g id="text_14">
      <text style="font-size: 10px; font-family: 'Helvetica', 'Arial', 'DejaVu Sans'; text-anchor: middle; fill: #52514e" x="386.820809" y="231.600781" transform="rotate(-0 386.820809 231.600781)">10s</text>
     </g>
    </g>
    <g id="xtick_5">
     <g id="line2d_22">
      <path d="M 512.500805 220.600781 
L 512.500805 50.19 
" clip-path="url(#p8d95a7ce49)" style="fill: none; stroke: #e1e0d9; stroke-linecap: round"/>
     </g>
     <g id="line2d_23"/>
     <g id="text_15">
      <text style="font-size: 10px; font-family: 'Helvetica', 'Arial', 'DejaVu Sans'; text-anchor: middle; fill: #52514e" x="512.500805" y="231.600781" transform="rotate(-0 512.500805 231.600781)">20s</text>
     </g>
    </g>
    <g id="xtick_6">
     <g id="line2d_24">
      <path d="M 638.180801 220.600781 
L 638.180801 50.19 
" clip-path="url(#p8d95a7ce49)" style="fill: none; stroke: #e1e0d9; stroke-linecap: round"/>
     </g>
     <g id="line2d_25"/>
     <g id="text_16">
      <text style="font-size: 10px; font-family: 'Helvetica', 'Arial', 'DejaVu Sans'; text-anchor: middle; fill: #52514e" x="638.180801" y="231.600781" transform="rotate(-0 638.180801 231.600781)">30s</text>
     </g>
    </g>
    <g id="text_17">
     <text style="font-size: 10px; font-family: 'Helvetica', 'Arial', 'DejaVu Sans'; text-anchor: middle; fill: #52514e" x="512.500805" y="244.8" transform="rotate(-0 512.500805 244.8)">window length</text>
    </g>
   </g>
   <g id="matplotlib.axis_4">
    <g id="ytick_7">
     <g id="line2d_26">
      <path d="M 369.225609 186.504477 
L 655.776 186.504477 
" clip-path="url(#p8d95a7ce49)" style="fill: none; stroke: #e1e0d9; stroke-linecap: round"/>
     </g>
     <g id="line2d_27"/>
     <g id="text_18">
      <text style="font-size: 10px; font-family: 'Helvetica', 'Arial', 'DejaVu Sans'; text-anchor: end; fill: #52514e" x="365.725609" y="190.254477" transform="rotate(-0 365.725609 190.254477)">40</text>
     </g>
    </g>
    <g id="ytick_8">
     <g id="line2d_28">
      <path d="M 369.225609 151.134867 
L 655.776 151.134867 
" clip-path="url(#p8d95a7ce49)" style="fill: none; stroke: #e1e0d9; stroke-linecap: round"/>
     </g>
     <g id="line2d_29"/>
     <g id="text_19">
      <text style="font-size: 10px; font-family: 'Helvetica', 'Arial', 'DejaVu Sans'; text-anchor: end; fill: #52514e" x="365.725609" y="154.884867" transform="rotate(-0 365.725609 154.884867)">50</text>
     </g>
    </g>
    <g id="ytick_9">
     <g id="line2d_30">
      <path d="M 369.225609 115.765257 
L 655.776 115.765257 
" clip-path="url(#p8d95a7ce49)" style="fill: none; stroke: #e1e0d9; stroke-linecap: round"/>
     </g>
     <g id="line2d_31"/>
     <g id="text_20">
      <text style="font-size: 10px; font-family: 'Helvetica', 'Arial', 'DejaVu Sans'; text-anchor: end; fill: #52514e" x="365.725609" y="119.515257" transform="rotate(-0 365.725609 119.515257)">60</text>
     </g>
    </g>
    <g id="ytick_10">
     <g id="line2d_32">
      <path d="M 369.225609 80.395647 
L 655.776 80.395647 
" clip-path="url(#p8d95a7ce49)" style="fill: none; stroke: #e1e0d9; stroke-linecap: round"/>
     </g>
     <g id="line2d_33"/>
     <g id="text_21">
      <text style="font-size: 10px; font-family: 'Helvetica', 'Arial', 'DejaVu Sans'; text-anchor: end; fill: #52514e" x="365.725609" y="84.145647" transform="rotate(-0 365.725609 84.145647)">70</text>
     </g>
    </g>
    <g id="text_22">
     <text style="font-size: 10px; font-family: 'Helvetica', 'Arial', 'DejaVu Sans'; text-anchor: middle; fill: #52514e" x="348.904516" y="135.395391" transform="rotate(-90 348.904516 135.395391)">x realtime</text>
    </g>
   </g>
   <g id="patch_6">
    <path d="M 369.225609 220.600781 
L 369.225609 50.19 
" style="fill: none; stroke: #c3c2b7; stroke-width: 0.8; stroke-linejoin: miter; stroke-linecap: square"/>
   </g>
   <g id="patch_7">
    <path d="M 369.225609 220.600781 
L 655.776 220.600781 
" style="fill: none; stroke: #c3c2b7; stroke-width: 0.8; stroke-linejoin: miter; stroke-linecap: square"/>
   </g>
   <g id="line2d_34">
    <path d="M 386.820809 199.944929 
L 512.500805 84.64 
L 638.180801 70.845852 
" clip-path="url(#p8d95a7ce49)" style="fill: none; stroke: #eb6834; stroke-width: 2; stroke-linecap: round"/>
    <defs>
     <path id="mdab91e5291" d="M -3 3 
L 3 3 
L 3 -3 
L -3 -3 
z
" style="stroke: #fcfcfb; stroke-width: 2; stroke-linejoin: miter"/>
    </defs>
    <g clip-path="url(#p8d95a7ce49)">
     <use xlink:href="#mdab91e5291" x="386.820809" y="199.944929" style="fill: #eb6834; stroke: #fcfcfb; stroke-width: 2; stroke-linejoin: miter"/>
     <use xlink:href="#mdab91e5291" x="512.500805" y="84.64" style="fill: #eb6834; stroke: #fcfcfb; stroke-width: 2; stroke-linejoin: miter"/>
     <use xlink:href="#mdab91e5291" x="638.180801" y="70.845852" style="fill: #eb6834; stroke: #fcfcfb; stroke-width: 2; stroke-linejoin: miter"/>
    </g>
   </g>
   <g id="text_23">
    <text style="font-weight: 700; font-size: 9px; font-family: 'Helvetica', 'Arial', 'DejaVu Sans'; text-anchor: middle; fill: #0b0b0b" x="386.820809" y="186.415632" transform="rotate(-0 386.820809 186.415632)">default</text>
   </g>
   <g id="text_24">
    <text style="font-weight: 700; font-size: 9.5px; font-family: 'Helvetica', 'Arial', 'DejaVu Sans'; text-anchor: start; fill: #0b0b0b" x="369.225609" y="44.19" transform="rotate(-0 369.225609 44.19)">speed</text>
   </g>
   <g id="PathCollection_2">
    <path d="M 386.820809 206.068653 
C 388.444839 206.068653 390.002573 205.423419 391.150936 204.275056 
C 392.299299 203.126693 392.944533 201.56896 392.944533 199.944929 
C 392.944533 198.320898 392.299299 196.763165 391.150936 195.614802 
C 390.002573 194.466439 388.444839 193.821205 386.820809 193.821205 
C 385.196778 193.821205 383.639045 194.466439 382.490682 195.614802 
C 381.342319 196.763165 380.697084 198.320898 380.697084 199.944929 
C 380.697084 201.56896 381.342319 203.126693 382.490682 204.275056 
C 383.639045 205.423419 385.196778 206.068653 386.820809 206.068653 
L 386.820809 206.068653 
z
" clip-path="url(#p8d95a7ce49)" style="fill: none; stroke: #0b0b0b; stroke-width: 1.5"/>
   </g>
  </g>
  <g id="text_25">
   <text style="font-weight: 700; font-size: 10px; font-family: 'Helvetica', 'Arial', 'DejaVu Sans'; text-anchor: start; fill: #0b0b0b" x="10.8" y="18.3" transform="rotate(-0 10.8 18.3)">kotoba: decode window (MLX chunked driver)</text>
  </g>
  <g id="text_26">
   <text style="font-size: 8.5px; font-family: 'Helvetica', 'Arial', 'DejaVu Sans'; text-anchor: start; fill: #898781" x="10.8" y="269.175" transform="rotate(-0 10.8 269.175)">17 Japanese files. Source: engines.md.</text>
  </g>
 </g>
 <defs>
  <clipPath id="p18c724c0b0">
   <rect x="43.656" y="50.19" width="286.550391" height="170.410781"/>
  </clipPath>
  <clipPath id="p8d95a7ce49">
   <rect x="369.225609" y="50.19" width="286.550391" height="170.410781"/>
  </clipPath>
 </defs>
</svg>
