<?xml version="1.0" encoding="utf-8" standalone="no"?>
<!DOCTYPE svg PUBLIC "-//W3C//DTD SVG 1.1//EN"
  "http://www.w3.org/Graphics/SVG/1.1/DTD/svg11.dtd">
<svg xmlns:xlink="http://www.w3.org/1999/xlink" width="481.248pt" height="275.659336pt" viewBox="0 0 481.248 275.659336" xmlns="http://www.w3.org/2000/svg" version="1.1">
 <metadata>
  <rdf:RDF xmlns:dc="http://purl.org/dc/elements/1.1/" xmlns:cc="http://creativecommons.org/ns#" xmlns:rdf="http://www.w3.org/1999/02/22-rdf-syntax-ns#">
   <cc:Work>
    <dc:type rdf:resource="http://purl.org/dc/dcmitype/StillImage"/>
    <dc:format>image/svg+xml</dc:format>
   </cc:Work>
  </rdf:RDF>
 </metadata>
 <defs>
  <style type="text/css">*{stroke-linejoin: round; stroke-linecap: butt}</style>
 </defs>
 <g id="figure_1">
  <g id="patch_1">
   <path d="M 0 275.659336 
L 481.248 275.659336 
L 481.248 0 
L 0 0 
z
" style="fill: #fcfcfb"/>
  </g>
  <g id="axes_1">
   <g id="patch_2">
    <path d="M 45.528 214.840781 
L 470.448 214.840781 
L 470.448 24.3 
L 45.528 24.3 
z
" style="fill: #fcfcfb"/>
   </g>
   <g id="matplotlib.axis_1">
    <g id="xtick_1">
     <g id="line2d_1">
      <path d="M 71.619579 214.840781 
L 71.619579 24.3 
" clip-path="url(#p903227b3de)" style="fill: none; stroke: #e1e0d9; stroke-linecap: round"/>
     </g>
     <g id="line2d_2"/>
     <g id="text_1">
      <text style="font-size: 10px; font-family: 'Helvetica', 'Arial', 'DejaVu Sans'; text-anchor: middle; fill: #52514e" x="71.619579" y="225.840781" transform="rotate(-0 71.619579 225.840781)">15s</text>
     </g>
    </g>
    <g id="xtick_2">
     <g id="line2d_3">
      <path d="M 195.865193 214.840781 
L 195.865193 24.3 
" clip-path="url(#p903227b3de)" style="fill: none; stroke: #e1e0d9; stroke-linecap: round"/>
     </g>
     <g id="line2d_4"/>
     <g id="text_2">
      <text style="font-size: 10px; font-family: 'Helvetica', 'Arial', 'DejaVu Sans'; text-anchor: middle; fill: #52514e" x="195.865193" y="225.840781" transform="rotate(-0 195.865193 225.840781)">30s</text>
     </g>
    </g>
    <g id="xtick_3">
     <g id="line2d_5">
      <path d="M 320.110807 214.840781 
L 320.110807 24.3 
" clip-path="url(#p903227b3de)" style="fill: none; stroke: #e1e0d9; stroke-linecap: round"/>
     </g>
     <g id="line2d_6"/>
     <g id="text_3">
      <text style="font-size: 10px; font-family: 'Helvetica', 'Arial', 'DejaVu Sans'; text-anchor: middle; fill: #52514e" x="320.110807" y="225.840781" transform="rotate(-0 320.110807 225.840781)">60s</text>
     </g>
    </g>
    <g id="xtick_4">
     <g id="line2d_7">
      <path d="M 444.356421 214.840781 
L 444.356421 24.3 
" clip-path="url(#p903227b3de)" style="fill: none; stroke: #e1e0d9; stroke-linecap: round"/>
     </g>
     <g id="line2d_8"/>
     <g id="text_4">
      <text style="font-size: 10px; font-family: 'Helvetica', 'Arial', 'DejaVu Sans'; text-anchor: middle; fill: #52514e" x="444.356421" y="225.840781" transform="rotate(-0 444.356421 225.840781)">120s</text>
     </g>
    </g>
    <g id="text_5">
     <text style="font-size: 10px; font-family: 'Helvetica', 'Arial', 'DejaVu Sans'; text-anchor: middle; fill: #52514e" x="257.988" y="239.04" transform="rotate(-0 257.988 239.04)">window length</text>
    </g>
   </g>
   <g id="matplotlib.axis_2">
    <g id="ytick_1">
     <g id="line2d_9">
      <path d="M 45.528 194.567616 
L 470.448 194.567616 
" clip-path="url(#p903227b3de)" style="fill: none; stroke: #e1e0d9; stroke-linecap: round"/>
     </g>
     <g id="line2d_10"/>
     <g id="text_6">
      <text style="font-size: 10px; font-family: 'Helvetica', 'Arial', 'DejaVu Sans'; text-anchor: end; fill: #52514e" x="42.028" y="198.317616" transform="rotate(-0 42.028 198.317616)">20</text>
     </g>
    </g>
    <g id="ytick_2">
     <g id="line2d_11">
      <path d="M 45.528 155.36363 
L 470.448 155.36363 
" clip-path="url(#p903227b3de)" style="fill: none; stroke: #e1e0d9; stroke-linecap: round"/>
     </g>
     <g id="line2d_12"/>
     <g id="text_7">
      <text style="font-size: 10px; font-family: 'Helvetica', 'Arial', 'DejaVu Sans'; text-anchor: end; fill: #52514e" x="42.028" y="159.11363" transform="rotate(-0 42.028 159.11363)">30</text>
     </g>
    </g>
    <g id="ytick_3">
     <g id="line2d_13">
      <path d="M 45.528 116.159644 
L 470.448 116.159644 
" clip-path="url(#p903227b3de)" style="fill: none; stroke: #e1e0d9; stroke-linecap: round"/>
     </g>
     <g id="line2d_14"/>
     <g id="text_8">
      <text style="font-size: 10px; font-family: 'Helvetica', 'Arial', 'DejaVu Sans'; text-anchor: end; fill: #52514e" x="42.028" y="119.909644" transform="rotate(-0 42.028 119.909644)">40</text>
     </g>
    </g>
    <g id="ytick_4">
     <g id="line2d_15">
      <path d="M 45.528 76.955658 
L 470.448 76.955658 
" clip-path="url(#p903227b3de)" style="fill: none; stroke: #e1e0d9; stroke-linecap: round"/>
     </g>
     <g id="line2d_16"/>
     <g id="text_9">
      <text style="font-size: 10px; font-family: 'Helvetica', 'Arial', 'DejaVu Sans'; text-anchor: end; fill: #52514e" x="42.028" y="80.705658" transform="rotate(-0 42.028 80.705658)">50</text>
     </g>
    </g>
    <g id="ytick_5">
     <g id="line2d_17">
      <path d="M 45.528 37.751672 
L 470.448 37.751672 
" clip-path="url(#p903227b3de)" style="fill: none; stroke: #e1e0d9; stroke-linecap: round"/>
     </g>
     <g id="line2d_18"/>
     <g id="text_10">
      <text style="font-size: 10px; font-family: 'Helvetica', 'Arial', 'DejaVu Sans'; text-anchor: end; fill: #52514e" x="42.028" y="41.501672" transform="rotate(-0 42.028 41.501672)">60</text>
     </g>
    </g>
    <g id="text_11">
     <text style="font-size: 10px; font-family: 'Helvetica', 'Arial', 'DejaVu Sans'; text-anchor: middle; fill: #52514e" x="24.8655" y="119.570391" transform="rotate(-90 24.8655 119.570391)">error % (lower is better)</text>
    </g>
   </g>
   <g id="patch_3">
    <path d="M 45.528 214.840781 
L 45.528 24.3 
" style="fill: none; stroke: #c3c2b7; stroke-width: 0.8; stroke-linejoin: miter; stroke-linecap: square"/>
   </g>
   <g id="patch_4">
    <path d="M 45.528 214.840781 
L 470.448 214.840781 
" style="fill: none; stroke: #c3c2b7; stroke-width: 0.8; stroke-linejoin: miter; stroke-linecap: square"/>
   </g>
   <g id="line2d_19">
    <path d="M 71.619579 93.382128 
L 195.865193 99.419542 
L 320.110807 92.754864 
L 444.356421 47.395852 
" clip-path="url(#p903227b3de)" style="fill: none; stroke: #2a78d6; stroke-width: 2; stroke-linecap: round"/>
    <defs>
     <path id="m18ba76b1aa" d="M 0 3 
C 0.795609 3 1.55874 2.683901 2.12132 2.12132 
C 2.683901 1.55874 3 0.795609 3 0 
C 3 -0.795609 2.683901 -1.55874 2.12132 -2.12132 
C 1.55874 -2.683901 0.795609 -3 0 -3 
C -0.795609 -3 -1.55874 -2.683901 -2.12132 -2.12132 
C -2.683901 -1.55874 -3 -0.795609 -3 0 
C -3 0.795609 -2.683901 1.55874 -2.12132 2.12132 
C -1.55874 2.683901 -0.795609 3 0 3 
z
" style="stroke: #fcfcfb; stroke-width: 2"/>
    </defs>
    <g clip-path="url(#p903227b3de)">
     <use xlink:href="#m18ba76b1aa" x="71.619579" y="93.382128" style="fill: #2a78d6; stroke: #fcfcfb; stroke-width: 2"/>
     <use xlink:href="#m18ba76b1aa" x="195.865193" y="99.419542" style="fill: #2a78d6; stroke: #fcfcfb; stroke-width: 2"/>
     <use xlink:href="#m18ba76b1aa" x="320.110807" y="92.754864" style="fill: #2a78d6; stroke: #fcfcfb; stroke-width: 2"/>
     <use xlink:href="#m18ba76b1aa" x="444.356421" y="47.395852" style="fill: #2a78d6; stroke: #fcfcfb; stroke-width: 2"/>
    </g>
   </g>
   <g id="line2d_20">
    <path d="M 71.619579 184.884231 
L 195.865193 187.902938 
L 320.110807 191.744929 
L 444.356421 189.98075 
" clip-path="url(#p903227b3de)" style="fill: none; stroke: #eb6834; stroke-width: 2; stroke-linecap: round"/>
    <defs>
     <path id="mdab91e5291" d="M -3 3 
L 3 3 
L 3 -3 
L -3 -3 
z
" style="stroke: #fcfcfb; stroke-width: 2; stroke-linejoin: miter"/>
    </defs>
    <g clip-path="url(#p903227b3de)">
     <use xlink:href="#mdab91e5291" x="71.619579" y="184.884231" style="fill: #eb6834; stroke: #fcfcfb; stroke-width: 2; stroke-linejoin: miter"/>
     <use xlink:href="#mdab91e5291" x="195.865193" y="187.902938" style="fill: #eb6834; stroke: #fcfcfb; stroke-width: 2; stroke-linejoin: miter"/>
     <use xlink:href="#mdab91e5291" x="320.110807" y="191.744929" style="fill: #eb6834; stroke: #fcfcfb; stroke-width: 2; stroke-linejoin: miter"/>
     <use xlink:href="#mdab91e5291" x="444.356421" y="189.98075" style="fill: #eb6834; stroke: #fcfcfb; stroke-width: 2; stroke-linejoin: miter"/>
    </g>
   </g>
   <g id="text_12">
    <text style="font-weight: 700; font-size: 9px; font-family: 'Helvetica', 'Arial', 'DejaVu Sans'; text-anchor: middle; fill: #0b0b0b" x="195.865193" y="85.890245" transform="rotate(-0 195.865193 85.890245)">default</text>
   </g>
   <g id="text_13">
    <text style="font-weight: 700; font-size: 10px; font-family: 'Helvetica', 'Arial', 'DejaVu Sans'; text-anchor: start; fill: #0b0b0b" x="45.528" y="18.3" transform="rotate(-0 45.528 18.3)">voxtral-v1 3B: decode window</text>
   </g>
   <g id="PathCollection_1">
    <path d="M 195.865193 105.543266 
C 197.489224 105.543266 199.046957 104.898032 200.19532 103.749669 
C 201.343683 102.601306 201.988917 101.043572 201.988917 99.419542 
C 201.988917 97.795511 201.343683 96.237778 200.19532 95.089415 
C 199.046957 93.941052 197.489224 93.295817 195.865193 93.295817 
C 194.241162 93.295817 192.683429 93.941052 191.535066 95.089415 
C 190.386703 96.237778 189.741469 97.795511 189.741469 99.419542 
C 189.741469 101.043572 190.386703 102.601306 191.535066 103.749669 
C 192.683429 104.898032 194.241162 105.543266 195.865193 105.543266 
L 195.865193 105.543266 
z
" clip-path="url(#p903227b3de)" style="fill: none; stroke: #0b0b0b; stroke-width: 1.5"/>
   </g>
   <g id="legend_1">
    <g id="line2d_21">
     <path d="M 53.628 36 
L 62.628 36 
L 71.628 36 
" style="fill: none; stroke: #2a78d6; stroke-width: 2; stroke-linecap: round"/>
     <g>
      <use xlink:href="#m18ba76b1aa" x="62.628" y="36" style="fill: #2a78d6; stroke: #fcfcfb; stroke-width: 2"/>
     </g>
    </g>
    <g id="text_14">
     <text style="font-size: 9px; font-family: 'Helvetica', 'Arial', 'DejaVu Sans'; text-anchor: start; fill: #52514e" x="78.828" y="39.15" transform="rotate(-0 78.828 39.15)">Japanese CER</text>
    </g>
    <g id="line2d_22">
     <path d="M 53.628 49.125937 
L 62.628 49.125937 
L 71.628 49.125937 
" style="fill: none; stroke: #eb6834; stroke-width: 2; stroke-linecap: round"/>
     <g>
      <use xlink:href="#mdab91e5291" x="62.628" y="49.125937" style="fill: #eb6834; stroke: #fcfcfb; stroke-width: 2; stroke-linejoin: miter"/>
     </g>
    </g>
    <g id="text_15">
     <text style="font-size: 9px; font-family: 'Helvetica', 'Arial', 'DejaVu Sans'; text-anchor: start; fill: #52514e" x="78.828" y="52.275937" transform="rotate(-0 78.828 52.275937)">English WER (2 files)</text>
    </g>
   </g>
  </g>
  <g id="text_16">
   <text style="font-size: 8.5px; font-family: 'Helvetica', 'Arial', 'DejaVu Sans'; text-anchor: start; fill: #898781" x="10.8" y="263.415" transform="rotate(-0 10.8 263.415)">7-file subset, bf16. Source: voxtral-v1.md.</text>
  </g>
 </g>
 <defs>
  <clipPath id="p903227b3de">
   <rect x="45.528" y="24.3" width="424.92" height="190.540781"/>
  </clipPath>
 </defs>
</svg>
