<?xml version="1.0" encoding="utf-8" standalone="no"?>
<!DOCTYPE svg PUBLIC "-//W3C//DTD SVG 1.1//EN"
  "http://www.w3.org/Graphics/SVG/1.1/DTD/svg11.dtd">
<svg xmlns:xlink="http://www.w3.org/1999/xlink" width="524.016pt" height="283.439625pt" viewBox="0 0 524.016 283.439625" xmlns="http://www.w3.org/2000/svg" version="1.1">
 <metadata>
  <rdf:RDF xmlns:dc="http://purl.org/dc/elements/1.1/" xmlns:cc="http://creativecommons.org/ns#" xmlns:rdf="http://www.w3.org/1999/02/22-rdf-syntax-ns#">
   <cc:Work>
    <dc:type rdf:resource="http://purl.org/dc/dcmitype/StillImage"/>
    <dc:format>image/svg+xml</dc:format>
   </cc:Work>
  </rdf:RDF>
 </metadata>
 <defs>
  <style type="text/css">*{stroke-linejoin: round; stroke-linecap: butt}</style>
 </defs>
 <g id="figure_1">
  <g id="patch_1">
   <path d="M 0 283.439625 
L 524.016 283.439625 
L 524.016 0 
L 0 0 
z
" style="fill: #1a1a19"/>
  </g>
  <g id="axes_1">
   <g id="patch_2">
    <path d="M 45.096 235.24 
L 513.216 235.24 
L 513.216 24.3 
L 45.096 24.3 
z
" style="fill: #1a1a19"/>
   </g>
   <g id="matplotlib.axis_1">
    <g id="xtick_1">
     <g id="line2d_1">
      <path d="M 73.840211 235.24 
L 73.840211 24.3 
" clip-path="url(#p8a5a29ee2c)" style="fill: none; stroke: #2c2c2a; stroke-linecap: round"/>
     </g>
     <g id="line2d_2"/>
     <g id="text_1">
      <text style="font-size: 10px; font-family: 'Helvetica', 'Arial', 'DejaVu Sans'; text-anchor: middle; fill: #c3c2b7" x="73.840211" y="246.24" transform="rotate(-0 73.840211 246.24)">tiny</text>
     </g>
    </g>
    <g id="xtick_2">
     <g id="line2d_3">
      <path d="M 142.278807 235.24 
L 142.278807 24.3 
" clip-path="url(#p8a5a29ee2c)" style="fill: none; stroke: #2c2c2a; stroke-linecap: round"/>
     </g>
     <g id="line2d_4"/>
     <g id="text_2">
      <text style="font-size: 10px; font-family: 'Helvetica', 'Arial', 'DejaVu Sans'; text-anchor: middle; fill: #c3c2b7" x="142.278807" y="246.24" transform="rotate(-0 142.278807 246.24)">base</text>
     </g>
    </g>
    <g id="xtick_3">
     <g id="line2d_5">
      <path d="M 210.717404 235.24 
L 210.717404 24.3 
" clip-path="url(#p8a5a29ee2c)" style="fill: none; stroke: #2c2c2a; stroke-linecap: round"/>
     </g>
     <g id="line2d_6"/>
     <g id="text_3">
      <text style="font-size: 10px; font-family: 'Helvetica', 'Arial', 'DejaVu Sans'; text-anchor: middle; fill: #c3c2b7" x="210.717404" y="246.24" transform="rotate(-0 210.717404 246.24)">small</text>
     </g>
    </g>
    <g id="xtick_4">
     <g id="line2d_7">
      <path d="M 279.156 235.24 
L 279.156 24.3 
" clip-path="url(#p8a5a29ee2c)" style="fill: none; stroke: #2c2c2a; stroke-linecap: round"/>
     </g>
     <g id="line2d_8"/>
     <g id="text_4">
      <text style="font-size: 10px; font-family: 'Helvetica', 'Arial', 'DejaVu Sans'; text-anchor: middle; fill: #c3c2b7" x="279.156" y="246.24" transform="rotate(-0 279.156 246.24)">medium</text>
     </g>
    </g>
    <g id="xtick_5">
     <g id="line2d_9">
      <path d="M 347.594596 235.24 
L 347.594596 24.3 
" clip-path="url(#p8a5a29ee2c)" style="fill: none; stroke: #2c2c2a; stroke-linecap: round"/>
     </g>
     <g id="line2d_10"/>
     <g id="text_5">
      <text style="font-size: 10px; font-family: 'Helvetica', 'Arial', 'DejaVu Sans'; text-anchor: middle; fill: #c3c2b7" x="347.594596" y="246.24" transform="rotate(-0 347.594596 246.24)">large-v2</text>
     </g>
    </g>
    <g id="xtick_6">
     <g id="line2d_11">
      <path d="M 416.033193 235.24 
L 416.033193 24.3 
" clip-path="url(#p8a5a29ee2c)" style="fill: none; stroke: #2c2c2a; stroke-linecap: round"/>
     </g>
     <g id="line2d_12"/>
     <g id="text_6">
      <text style="font-size: 10px; font-family: 'Helvetica', 'Arial', 'DejaVu Sans'; text-anchor: middle; fill: #c3c2b7" x="416.033193" y="246.24" transform="rotate(-0 416.033193 246.24)">large-v3</text>
     </g>
    </g>
    <g id="xtick_7">
     <g id="line2d_13">
      <path d="M 484.471789 235.24 
L 484.471789 24.3 
" clip-path="url(#p8a5a29ee2c)" style="fill: none; stroke: #2c2c2a; stroke-linecap: round"/>
     </g>
     <g id="line2d_14"/>
     <g id="text_7">
      <text style="font-size: 10px; font-family: 'Helvetica', 'Arial', 'DejaVu Sans'; text-anchor: middle; fill: #c3c2b7" x="484.471789" y="246.24" transform="rotate(-0 484.471789 246.24)">turbo</text>
     </g>
    </g>
   </g>
   <g id="matplotlib.axis_2">
    <g id="ytick_1">
     <g id="line2d_15">
      <path d="M 45.096 229.467426 
L 513.216 229.467426 
" clip-path="url(#p8a5a29ee2c)" style="fill: none; stroke: #2c2c2a; stroke-linecap: round"/>
     </g>
     <g id="line2d_16"/>
     <g id="text_8">
      <text style="font-size: 10px; font-family: 'Helvetica', 'Arial', 'DejaVu Sans'; text-anchor: end; fill: #c3c2b7" x="41.596" y="233.217426" transform="rotate(-0 41.596 233.217426)">10</text>
     </g>
    </g>
    <g id="ytick_2">
     <g id="line2d_17">
      <path d="M 45.096 185.95993 
L 513.216 185.95993 
" clip-path="url(#p8a5a29ee2c)" style="fill: none; stroke: #2c2c2a; stroke-linecap: round"/>
     </g>
     <g id="line2d_18"/>
     <g id="text_9">
      <text style="font-size: 10px; font-family: 'Helvetica', 'Arial', 'DejaVu Sans'; text-anchor: end; fill: #c3c2b7" x="41.596" y="189.70993" transform="rotate(-0 41.596 189.70993)">20</text>
     </g>
    </g>
    <g id="ytick_3">
     <g id="line2d_19">
      <path d="M 45.096 142.452435 
L 513.216 142.452435 
" clip-path="url(#p8a5a29ee2c)" style="fill: none; stroke: #2c2c2a; stroke-linecap: round"/>
     </g>
     <g id="line2d_20"/>
     <g id="text_10">
      <text style="font-size: 10px; font-family: 'Helvetica', 'Arial', 'DejaVu Sans'; text-anchor: end; fill: #c3c2b7" x="41.596" y="146.202435" transform="rotate(-0 41.596 146.202435)">30</text>
     </g>
    </g>
    <g id="ytick_4">
     <g id="line2d_21">
      <path d="M 45.096 98.94494 
L 513.216 98.94494 
" clip-path="url(#p8a5a29ee2c)" style="fill: none; stroke: #2c2c2a; stroke-linecap: round"/>
     </g>
     <g id="line2d_22"/>
     <g id="text_11">
      <text style="font-size: 10px; font-family: 'Helvetica', 'Arial', 'DejaVu Sans'; text-anchor: end; fill: #c3c2b7" x="41.596" y="102.69494" transform="rotate(-0 41.596 102.69494)">40</text>
     </g>
    </g>
    <g id="ytick_5">
     <g id="line2d_23">
      <path d="M 45.096 55.437444 
L 513.216 55.437444 
" clip-path="url(#p8a5a29ee2c)" style="fill: none; stroke: #2c2c2a; stroke-linecap: round"/>
     </g>
     <g id="line2d_24"/>
     <g id="text_12">
      <text style="font-size: 10px; font-family: 'Helvetica', 'Arial', 'DejaVu Sans'; text-anchor: end; fill: #c3c2b7" x="41.596" y="59.187444" transform="rotate(-0 41.596 59.187444)">50</text>
     </g>
    </g>
    <g id="text_13">
     <text style="font-size: 10px; font-family: 'Helvetica', 'Arial', 'DejaVu Sans'; text-anchor: middle; fill: #c3c2b7" x="24.4335" y="129.77" transform="rotate(-90 24.4335 129.77)">error % (lower is better)</text>
    </g>
   </g>
   <g id="patch_3">
    <path d="M 45.096 235.24 
L 45.096 24.3 
" style="fill: none; stroke: #383835; stroke-width: 0.8; stroke-linejoin: miter; stroke-linecap: square"/>
   </g>
   <g id="patch_4">
    <path d="M 45.096 235.24 
L 513.216 235.24 
" style="fill: none; stroke: #383835; stroke-width: 0.8; stroke-linejoin: miter; stroke-linecap: square"/>
   </g>
   <g id="line2d_25">
    <path d="M 73.840211 49.868485 
L 142.278807 142.756987 
L 210.717404 180.173433 
L 279.156 178.868208 
L 347.594596 195.227027 
L 416.033193 209.671515 
L 484.471789 209.105918 
" clip-path="url(#p8a5a29ee2c)" style="fill: none; stroke: #3987e5; stroke-width: 2; stroke-linecap: round"/>
    <defs>
     <path id="m226001cfbb" d="M 0 3 
C 0.795609 3 1.55874 2.683901 2.12132 2.12132 
C 2.683901 1.55874 3 0.795609 3 0 
C 3 -0.795609 2.683901 -1.55874 2.12132 -2.12132 
C 1.55874 -2.683901 0.795609 -3 0 -3 
C -0.795609 -3 -1.55874 -2.683901 -2.12132 -2.12132 
C -2.683901 -1.55874 -3 -0.795609 -3 0 
C -3 0.795609 -2.683901 1.55874 -2.12132 2.12132 
C -1.55874 2.683901 -0.795609 3 0 3 
z
" style="stroke: #1a1a19; stroke-width: 2"/>
    </defs>
    <g clip-path="url(#p8a5a29ee2c)">
     <use xlink:href="#m226001cfbb" x="73.840211" y="49.868485" style="fill: #3987e5; stroke: #1a1a19; stroke-width: 2"/>
     <use xlink:href="#m226001cfbb" x="142.278807" y="142.756987" style="fill: #3987e5; stroke: #1a1a19; stroke-width: 2"/>
     <use xlink:href="#m226001cfbb" x="210.717404" y="180.173433" style="fill: #3987e5; stroke: #1a1a19; stroke-width: 2"/>
     <use xlink:href="#m226001cfbb" x="279.156" y="178.868208" style="fill: #3987e5; stroke: #1a1a19; stroke-width: 2"/>
     <use xlink:href="#m226001cfbb" x="347.594596" y="195.227027" style="fill: #3987e5; stroke: #1a1a19; stroke-width: 2"/>
     <use xlink:href="#m226001cfbb" x="416.033193" y="209.671515" style="fill: #3987e5; stroke: #1a1a19; stroke-width: 2"/>
     <use xlink:href="#m226001cfbb" x="484.471789" y="209.105918" style="fill: #3987e5; stroke: #1a1a19; stroke-width: 2"/>
    </g>
   </g>
   <g id="line2d_26">
    <path d="M 73.840211 133.011308 
L 142.278807 154.895579 
L 210.717404 174.299921 
L 279.156 193.660757 
L 347.594596 196.053669 
L 416.033193 193.530234 
L 484.471789 193.312697 
" clip-path="url(#p8a5a29ee2c)" style="fill: none; stroke: #d95926; stroke-width: 2; stroke-linecap: round"/>
    <defs>
     <path id="m32749af53d" d="M -3 3 
L 3 3 
L 3 -3 
L -3 -3 
z
" style="stroke: #1a1a19; stroke-width: 2; stroke-linejoin: miter"/>
    </defs>
    <g clip-path="url(#p8a5a29ee2c)">
     <use xlink:href="#m32749af53d" x="73.840211" y="133.011308" style="fill: #d95926; stroke: #1a1a19; stroke-width: 2; stroke-linejoin: miter"/>
     <use xlink:href="#m32749af53d" x="142.278807" y="154.895579" style="fill: #d95926; stroke: #1a1a19; stroke-width: 2; stroke-linejoin: miter"/>
     <use xlink:href="#m32749af53d" x="210.717404" y="174.299921" style="fill: #d95926; stroke: #1a1a19; stroke-width: 2; stroke-linejoin: miter"/>
     <use xlink:href="#m32749af53d" x="279.156" y="193.660757" style="fill: #d95926; stroke: #1a1a19; stroke-width: 2; stroke-linejoin: miter"/>
     <use xlink:href="#m32749af53d" x="347.594596" y="196.053669" style="fill: #d95926; stroke: #1a1a19; stroke-width: 2; stroke-linejoin: miter"/>
     <use xlink:href="#m32749af53d" x="416.033193" y="193.530234" style="fill: #d95926; stroke: #1a1a19; stroke-width: 2; stroke-linejoin: miter"/>
     <use xlink:href="#m32749af53d" x="484.471789" y="193.312697" style="fill: #d95926; stroke: #1a1a19; stroke-width: 2; stroke-linejoin: miter"/>
    </g>
   </g>
   <g id="text_14">
    <text style="font-weight: 700; font-size: 9px; font-family: 'Helvetica', 'Arial', 'DejaVu Sans'; text-anchor: middle; fill: #ffffff" x="416.033193" y="228.421515" transform="rotate(-0 416.033193 228.421515)">default</text>
   </g>
   <g id="text_15">
    <text style="font-weight: 700; font-size: 10px; font-family: 'Helvetica', 'Arial', 'DejaVu Sans'; text-anchor: start; fill: #ffffff" x="45.096" y="18.3" transform="rotate(-0 45.096 18.3)">Whisper size, default config</text>
   </g>
   <g id="PathCollection_1">
    <path d="M 416.033193 215.79524 
C 417.657224 215.79524 419.214957 215.150005 420.36332 214.001642 
C 421.511683 212.853279 422.156917 211.295546 422.156917 209.671515 
C 422.156917 208.047484 421.511683 206.489751 420.36332 205.341388 
C 419.214957 204.193025 417.657224 203.547791 416.033193 203.547791 
C 414.409162 203.547791 412.851429 204.193025 411.703066 205.341388 
C 410.554703 206.489751 409.909469 208.047484 409.909469 209.671515 
C 409.909469 211.295546 410.554703 212.853279 411.703066 214.001642 
C 412.851429 215.150005 414.409162 215.79524 416.033193 215.79524 
L 416.033193 215.79524 
z
" clip-path="url(#p8a5a29ee2c)" style="fill: none; stroke: #ffffff; stroke-width: 1.5"/>
   </g>
   <g id="legend_1">
    <g id="line2d_27">
     <path d="M 394.896938 36 
L 403.896938 36 
L 412.896938 36 
" style="fill: none; stroke: #3987e5; stroke-width: 2; stroke-linecap: round"/>
     <g>
      <use xlink:href="#m226001cfbb" x="403.896938" y="36" style="fill: #3987e5; stroke: #1a1a19; stroke-width: 2"/>
     </g>
    </g>
    <g id="text_16">
     <text style="font-size: 9px; font-family: 'Helvetica', 'Arial', 'DejaVu Sans'; text-anchor: start; fill: #c3c2b7" x="420.096938" y="39.15" transform="rotate(-0 420.096938 39.15)">Japanese CER</text>
    </g>
    <g id="line2d_28">
     <path d="M 394.896938 49.125937 
L 403.896938 49.125937 
L 412.896938 49.125937 
" style="fill: none; stroke: #d95926; stroke-width: 2; stroke-linecap: round"/>
     <g>
      <use xlink:href="#m32749af53d" x="403.896938" y="49.125937" style="fill: #d95926; stroke: #1a1a19; stroke-width: 2; stroke-linejoin: miter"/>
     </g>
    </g>
    <g id="text_17">
     <text style="font-size: 9px; font-family: 'Helvetica', 'Arial', 'DejaVu Sans'; text-anchor: start; fill: #c3c2b7" x="420.096938" y="52.275937" transform="rotate(-0 420.096938 52.275937)">English WER (3 files)</text>
    </g>
   </g>
  </g>
  <g id="text_18">
   <text style="font-size: 8.5px; font-family: 'Helvetica', 'Arial', 'DejaVu Sans'; text-anchor: start; fill: #898781" x="10.8" y="270.759" transform="rotate(-0 10.8 270.759)">20 files, default config (no-condition on small and larger). large-v3 and turbo tie; the tie goes to the full decoder. Source: engines.md.</text>
  </g>
 </g>
 <defs>
  <clipPath id="p8a5a29ee2c">
   <rect x="45.096" y="24.3" width="468.12" height="210.94"/>
  </clipPath>
 </defs>
</svg>
